<?xml version="1.0" standalone="no"?>
<!DOCTYPE svg PUBLIC "-//W3C//DTD SVG 20010904//EN"
  "http://www.w3.org/TR/2001/REC-SVG-20010904/DTD/svg10.dtd">
<svg version="1.0" xmlns="http://www.w3.org/2000/svg"
     width="150.000000pt" height="150.000000pt" viewBox="0 0 150.000000 150.000000"
     preserveAspectRatio="xMidYMid meet">
  <metadata>
    Created by potrace 1.15, written by Peter Selinger 2001-2017
  </metadata>
  <g transform="translate(0.000000,150.000000) scale(0.100000,-0.100000)"
     fill="#000000" stroke="none">
    <path d="M102 936 c3 -28 0 -37 -18 -45 -36 -16 -64 -88 -64 -163 0 -77 18
-126 59 -161 16 -13 27 -28 24 -31 -4 -3 24 -6 60 -6 l67 0 0 185 c0 102 3
185 8 185 4 0 6 -81 4 -180 l-3 -180 61 0 c64 0 113 18 124 45 11 31 6 100 -9
123 -12 16 -13 27 -5 41 5 11 10 40 10 64 0 46 -17 71 -55 80 -11 2 14 5 56 6
l75 1 -28 -162 c-35 -206 -35 -198 2 -198 26 0 31 5 37 30 4 25 10 30 33 30
23 0 29 -5 34 -30 5 -27 10 -30 41 -30 32 0 35 2 30 23 -3 12 -16 88 -30 170
-13 81 -27 152 -30 157 -4 6 11 10 37 10 l43 0 -3 -180 -3 -180 31 0 30 0 1
108 1 107 30 -107 30 -108 35 0 34 0 -3 180 c-3 174 -2 180 17 180 19 0 20 -6
17 -180 l-3 -180 65 0 c54 0 70 4 93 24 l28 24 0 130 c0 112 -2 133 -19 150
-10 12 -28 23 -40 25 -11 2 43 5 122 6 l142 1 0 -185 0 -185 71 0 c38 0 68 4
65 9 -3 4 4 17 15 27 39 35 49 69 49 161 0 70 -4 95 -20 121 -11 18 -26 35
-33 38 -8 3 -11 18 -9 44 l4 40 -657 0 -657 0 4 -34z"/>
  </g>
</svg>
